<?xml version="1.0" encoding="UTF-8" standalone="no"?>
<svg
   xmlns:dc="http://purl.org/dc/elements/1.1/"
   xmlns:cc="http://creativecommons.org/ns#"
   xmlns:rdf="http://www.w3.org/1999/02/22-rdf-syntax-ns#"
   xmlns:svg="http://www.w3.org/2000/svg"
   xmlns="http://www.w3.org/2000/svg"
   viewBox="0 0 337.23999 334.95999"
   height="334.95999"
   width="337.23999"
   xml:space="preserve"
   id="svg2"
   version="1.1"><metadata
     id="metadata8"><rdf:RDF><cc:Work
         rdf:about=""><dc:format>image/svg+xml</dc:format><dc:type
           rdf:resource="http://purl.org/dc/dcmitype/StillImage" /></cc:Work></rdf:RDF></metadata><defs
     id="defs6"><clipPath
       id="clipPath20"
       clipPathUnits="userSpaceOnUse"><path
         id="path18"
         d="m 809.941,944.09 478.539,275.71 c 14.75,8.48 23.86,24.22 23.85,41.24 l 0.51,552.29 c 0.02,17.01 -9.03,32.75 -23.78,41.28 -14.72,8.52 -32.9,8.55 -47.64,0.04 L 762.871,1578.94 c -7.383,-4.24 -13.351,-10.3 -17.461,-17.42 -4.121,-7.12 -6.406,-15.31 -6.406,-23.82 l -0.481,-552.278 c -0.027,-17.031 9.055,-32.774 23.782,-41.293 14.738,-8.527 32.898,-8.527 47.636,-0.039 z" /></clipPath><linearGradient
       id="linearGradient26"
       spreadMethod="pad"
       gradientTransform="matrix(-745.588,-199.059,-199.059,745.588,1398.47,1498.9)"
       gradientUnits="userSpaceOnUse"
       y2="0"
       x2="1"
       y1="0"
       x1="0"><stop
         id="stop22"
         offset="0"
         style="stop-opacity:1;stop-color:#8b1b36" /><stop
         id="stop24"
         offset="1"
         style="stop-opacity:1;stop-color:#d9115d" /></linearGradient><clipPath
       id="clipPath36"
       clipPathUnits="userSpaceOnUse"><path
         id="path34"
         d="m 1048.91,805.84 478.52,275.71 c 14.77,8.48 23.87,24.21 23.87,41.24 l 0.51,552.28 c 0.02,17.02 -9.05,32.76 -23.78,41.29 -14.74,8.52 -32.9,8.55 -47.65,0.04 l -478.55,-275.71 c -7.377,-4.24 -13.346,-10.31 -17.467,-17.43 -4.109,-7.11 -6.394,-15.3 -6.394,-23.81 L 977.48,847.172 c -0.031,-17.031 9.051,-32.774 23.78,-41.293 14.75,-8.52 32.91,-8.527 47.65,-0.039 z" /></clipPath><linearGradient
       id="linearGradient46"
       spreadMethod="pad"
       gradientTransform="matrix(-745.588,-199.059,-199.059,745.588,1637.44,1360.65)"
       gradientUnits="userSpaceOnUse"
       y2="0"
       x2="1"
       y1="0"
       x1="0"><stop
         id="stop38"
         offset="0"
         style="stop-opacity:1;stop-color:#d9115d" /><stop
         id="stop40"
         offset="0.00045148"
         style="stop-opacity:1;stop-color:#d9115d" /><stop
         id="stop42"
         offset="0.99949"
         style="stop-opacity:1;stop-color:#f3662a" /><stop
         id="stop44"
         offset="1"
         style="stop-opacity:1;stop-color:#f3662a" /></linearGradient><clipPath
       id="clipPath56"
       clipPathUnits="userSpaceOnUse"><path
         id="path54"
         d="m 1287.85,667.602 478.55,275.699 c 14.76,8.48 23.86,24.211 23.85,41.238 l 0.5,552.301 c 0.03,17.02 -9.05,32.76 -23.78,41.28 -14.74,8.52 -32.91,8.53 -47.64,0.04 l -478.54,-275.73 c -7.38,-4.23 -13.35,-10.3 -17.46,-17.41 -4.12,-7.12 -6.41,-15.32 -6.4,-23.83 l -0.5,-552.268 c -0.02,-17.012 9.04,-32.762 23.78,-41.281 14.73,-8.52 32.9,-8.551 47.64,-0.039 z" /></clipPath><linearGradient
       id="linearGradient64"
       spreadMethod="pad"
       gradientTransform="matrix(-745.588,-199.059,-199.059,745.588,1876.39,1222.41)"
       gradientUnits="userSpaceOnUse"
       y2="0"
       x2="1"
       y1="0"
       x1="0"><stop
         id="stop58"
         offset="0"
         style="stop-opacity:1;stop-color:#f3662a" /><stop
         id="stop60"
         offset="0.00051036"
         style="stop-opacity:1;stop-color:#f3662a" /><stop
         id="stop62"
         offset="1"
         style="stop-opacity:1;stop-color:#fab90a" /></linearGradient><clipPath
       id="clipPath74"
       clipPathUnits="userSpaceOnUse"><path
         id="path72"
         d="m 2153.28,1518.16 v 109.45 c 0,83.25 -44.13,160.24 -115.96,202.31 l -667.24,390.83 c -36.54,21.4 -77.55,32.16 -118.49,32.15 -40.23,0.01 -80.59,-10.36 -116.73,-31.13 l 0.03,0.02 -641.128,-367.92 C 420.918,1812.06 376.008,1734.5 376.008,1650.52 V 872.699 c 0,-83 43.879,-159.82 115.402,-201.969 l 642.88,-378.949 c 36.69,-21.633 77.92,-32.472 119.04,-32.461 40.4,-0.011 80.89,10.461 117.1,31.321 l 0.03,0.019 665.49,383.762 c 72.6,41.867 117.33,119.289 117.33,203.098 v 123.8 c 0,38.66 -31.34,70 -70,70 -38.66,0 -69.99,-31.34 -69.99,-70 l -0.01,-123.8 c 0,-33.758 -18.03,-64.961 -47.27,-81.821 l -665.48,-383.758 0.03,0.02 c -14.68,-8.449 -30.92,-12.641 -47.23,-12.652 -16.63,0.011 -33.14,4.351 -47.95,13.082 L 562.496,791.34 C 533.684,808.309 516,839.27 516,872.699 v 777.821 c 0,33.84 18.098,65.08 47.441,81.92 l 641.139,367.92 0.03,0.02 c 14.55,8.36 30.7,12.51 46.98,12.52 16.52,-0.01 32.96,-4.31 47.74,-12.96 l 667.23,-390.83 c 28.94,-16.94 46.72,-47.97 46.72,-81.5 v -109.45 c 0,-38.66 31.34,-70 70,-70 38.66,0 70,31.34 70,70 z" /></clipPath><linearGradient
       id="linearGradient82"
       spreadMethod="pad"
       gradientTransform="matrix(1777.28,0,0,-1777.28,376.006,1256.1)"
       gradientUnits="userSpaceOnUse"
       y2="0"
       x2="1"
       y1="0"
       x1="0"><stop
         id="stop76"
         offset="0"
         style="stop-opacity:1;stop-color:#331422" /><stop
         id="stop78"
         offset="0.00049074"
         style="stop-opacity:1;stop-color:#331422" /><stop
         id="stop80"
         offset="1"
         style="stop-opacity:1;stop-color:#8b1b36" /></linearGradient></defs><g
     transform="matrix(1.3333333,0,0,-1.3333333,0,334.96)"
     id="g10"><g
       transform="scale(0.1)"
       id="g12"><g
         id="g14"><g
           clip-path="url(#clipPath20)"
           id="g16"><path
             id="path28"
             style="fill:url(#linearGradient26);fill-opacity:1;fill-rule:nonzero;stroke:none"
             d="m 809.941,944.09 478.539,275.71 c 14.75,8.48 23.86,24.22 23.85,41.24 l 0.51,552.29 c 0.02,17.01 -9.03,32.75 -23.78,41.28 -14.72,8.52 -32.9,8.55 -47.64,0.04 L 762.871,1578.94 c -7.383,-4.24 -13.351,-10.3 -17.461,-17.42 -4.121,-7.12 -6.406,-15.31 -6.406,-23.82 l -0.481,-552.278 c -0.027,-17.031 9.055,-32.774 23.782,-41.293 14.738,-8.527 32.898,-8.527 47.636,-0.039" /></g></g><g
         id="g30"><g
           clip-path="url(#clipPath36)"
           id="g32"><path
             id="path48"
             style="fill:url(#linearGradient46);fill-opacity:1;fill-rule:nonzero;stroke:none"
             d="m 1048.91,805.84 478.52,275.71 c 14.77,8.48 23.87,24.21 23.87,41.24 l 0.51,552.28 c 0.02,17.02 -9.05,32.76 -23.78,41.29 -14.74,8.52 -32.9,8.55 -47.65,0.04 l -478.55,-275.71 c -7.377,-4.24 -13.346,-10.31 -17.467,-17.43 -4.109,-7.11 -6.394,-15.3 -6.394,-23.81 L 977.48,847.172 c -0.031,-17.031 9.051,-32.774 23.78,-41.293 14.75,-8.52 32.91,-8.527 47.65,-0.039" /></g></g><g
         id="g50"><g
           clip-path="url(#clipPath56)"
           id="g52"><path
             id="path66"
             style="fill:url(#linearGradient64);fill-opacity:1;fill-rule:nonzero;stroke:none"
             d="m 1287.85,667.602 478.55,275.699 c 14.76,8.48 23.86,24.211 23.85,41.238 l 0.5,552.301 c 0.03,17.02 -9.05,32.76 -23.78,41.28 -14.74,8.52 -32.91,8.53 -47.64,0.04 l -478.54,-275.73 c -7.38,-4.23 -13.35,-10.3 -17.46,-17.41 -4.12,-7.12 -6.41,-15.32 -6.4,-23.83 l -0.5,-552.268 c -0.02,-17.012 9.04,-32.762 23.78,-41.281 14.73,-8.52 32.9,-8.551 47.64,-0.039" /></g></g><g
         id="g68"><g
           clip-path="url(#clipPath74)"
           id="g70"><path
             id="path84"
             style="fill:url(#linearGradient82);fill-opacity:1;fill-rule:nonzero;stroke:none"
             d="m 2153.28,1518.16 v 109.45 c 0,83.25 -44.13,160.24 -115.96,202.31 l -667.24,390.83 c -36.54,21.4 -77.55,32.16 -118.49,32.15 -40.23,0.01 -80.59,-10.36 -116.73,-31.13 l 0.03,0.02 -641.128,-367.92 C 420.918,1812.06 376.008,1734.5 376.008,1650.52 V 872.699 c 0,-83 43.879,-159.82 115.402,-201.969 l 642.88,-378.949 c 36.69,-21.633 77.92,-32.472 119.04,-32.461 40.4,-0.011 80.89,10.461 117.1,31.321 l 0.03,0.019 665.49,383.762 c 72.6,41.867 117.33,119.289 117.33,203.098 v 123.8 c 0,38.66 -31.34,70 -70,70 -38.66,0 -69.99,-31.34 -69.99,-70 l -0.01,-123.8 c 0,-33.758 -18.03,-64.961 -47.27,-81.821 l -665.48,-383.758 0.03,0.02 c -14.68,-8.449 -30.92,-12.641 -47.23,-12.652 -16.63,0.011 -33.14,4.351 -47.95,13.082 L 562.496,791.34 C 533.684,808.309 516,839.27 516,872.699 v 777.821 c 0,33.84 18.098,65.08 47.441,81.92 l 641.139,367.92 0.03,0.02 c 14.55,8.36 30.7,12.51 46.98,12.52 16.52,-0.01 32.96,-4.31 47.74,-12.96 l 667.23,-390.83 c 28.94,-16.94 46.72,-47.97 46.72,-81.5 v -109.45 c 0,-38.66 31.34,-70 70,-70 38.66,0 70,31.34 70,70" /></g></g></g></g></svg>